{"accessors" : [{"bufferView" : 0, "byteOffset" : 0, "componentType" : 5123, "count" : 4968, "type" : "SCALAR", "max" : [4967], "min" : [0]}, {"bufferView" : 1, "byteOffset" : 0, "componentType" : 5126, "count" : 4968, "type" : "VEC3", "max" : [0.1588888317346573, 0.19466988742351532, 0.02682679332792759], "min" : [-0.11972148716449738, -0.1398332267999649, -0.020233798772096634], "name" : "POSITION"}, {"bufferView" : 1, "byteOffset" : 12, "componentType" : 5126, "count" : 4968, "type" : "VEC3", "max" : [1.0000044107437134, 1.0000017881393433, 1.0000044107437134], "min" : [-1.000003457069397, -1.000001072883606, -1.0000044107437134], "name" : "NORMAL"}, {"bufferView" : 1, "byteOffset" : 24, "componentType" : 5126, "count" : 4968, "type" : "VEC2", "max" : [0.9625493288040161, 0.12819522619247437], "min" : [0.8440630435943604, 0.009445548057556152], "name" : "TEXCOORD_0"}, {"bufferView" : 0, "byteOffset" : 9936, "componentType" : 5123, "count" : 108, "type" : "SCALAR", "max" : [107], "min" : [0]}, {"bufferView" : 2, "byteOffset" : 0, "componentType" : 5126, "count" : 108, "type" : "VEC3", "max" : [3.210798978805542, 5.2602458000183105, 1.8408474922180176], "min" : [-3.3956241607666016, -3.3648862838745117, 0], "name" : "POSITION"}, {"bufferView" : 2, "byteOffset" : 12, "componentType" : 5126, "count" : 108, "type" : "VEC3", "max" : [0.999965488910675, 0.9999939799308777, 1.0000044107437134], "min" : [-0.8801729083061218, -0.859560489654541, -1.0000044107437134], "name" : "NORMAL"}, {"bufferView" : 2, "byteOffset" : 24, "componentType" : 5126, "count" : 108, "type" : "VEC2", "max" : [0.8727529048919678, 0.21164536476135254], "min" : [0.7675244212150574, 0.1402568817138672], "name" : "TEXCOORD_0"}, {"bufferView" : 3, "byteOffset" : 0, "componentType" : 5126, "normalized" : false, "count" : 113, "type" : "SCALAR", "max" : [5], "min" : [0]}, {"bufferView" : 3, "byteOffset" : 452, "componentType" : 5126, "normalized" : false, "count" : 113, "type" : "VEC3", "max" : [0, 1216.684814453125, 0], "min" : [0, 809.2735595703125, 0]}, {"bufferView" : 4, "byteOffset" : 0, "componentType" : 5126, "normalized" : false, "count" : 2, "type" : "SCALAR", "max" : [5], "min" : [0]}, {"bufferView" : 4, "byteOffset" : 8, "componentType" : 5126, "normalized" : false, "count" : 2, "type" : "VEC3", "max" : [3519.092529296875, 3519.092529296875, 3519.092529296875], "min" : [3519.092529296875, 3519.092529296875, 3519.092529296875]}], "animations" : [{"channels" : [{"sampler" : 0, "target" : {"node" : 1, "path" : "translation"}}, {"sampler" : 1, "target" : {"node" : 1, "path" : "scale"}}], "samplers" : [{"input" : 8, "interpolation" : "LINEAR", "output" : 9}, {"input" : 10, "interpolation" : "LINEAR", "output" : 11}], "name" : "Curve.003|Curve.003Action"}], "asset" : {"generator" : "Aspose.3D 24.9.1", "version" : "2.0"}, "buffers" : [{"uri" : "data:application/octet-stream;base64,", "byteLength" : 174444}], "bufferViews" : [{"buffer" : 0, "byteOffset" : 0, "byteLength" : 10152, "target" : 34963}, {"buffer" : 0, "byteOffset" : 10156, "byteLength" : 158976, "byteStride" : 32, "target" : 34962}, {"buffer" : 0, "byteOffset" : 169136, "byteLength" : 3456, "byteStride" : 32, "target" : 34962}, {"buffer" : 0, "byteOffset" : 172596, "byteLength" : 1808}, {"buffer" : 0, "byteOffset" : 174408, "byteLength" : 32}], "materials" : [{"name" : "ptit_logo_red-circle", "pbrMetallicRoughness" : {"baseColorFactor" : [0.800000011920929, 0.800000011920929, 0.800000011920929, 1], "metallicFactor" : 1, "roughnessFactor" : 1}, "emissiveFactor" : [0, 0, 0], "alphaMode" : "OPAQUE", "doubleSided" : false}, {"name" : "logo.ptit-star", "pbrMetallicRoughness" : {"baseColorFactor" : [0.800000011920929, 0.800000011920929, 0.800000011920929, 1], "metallicFactor" : 1, "roughnessFactor" : 1}, "emissiveFactor" : [0, 0, 0], "alphaMode" : "OPAQUE", "doubleSided" : false}], "meshes" : [{"primitives" : [{"attributes" : {"POSITION" : 1, "NORMAL" : 2, "TEXCOORD_0" : 3}, "indices" : 0, "material" : 0, "mode" : 4}], "name" : "Curve.009"}, {"primitives" : [{"attributes" : {"POSITION" : 5, "NORMAL" : 6, "TEXCOORD_0" : 7}, "indices" : 4, "material" : 1, "mode" : 4}], "name" : "Circle"}], "nodes" : [{"matrix" : [0.005334525369107723, -1.5105821893407257E-18, 2.3792795846066257E-25, 0, 1.5105824530641668E-18, 0.00533452630043026, -6.359250903642518E-10, 0, -5.785252886128966E-26, 6.359249793419494E-10, 0.005334525369107685, 0, 0.07727380841970444, 0.0027921495493501425, -0.005513867363333702, 1], "mesh" : 1, "name" : "star"}, {"children" : [0], "mesh" : 0, "rotation" : [1.3304898278363322E-08, 0.7933533739561263, -1.7339285342130976E-08, 0.6087613851357775], "scale" : [3519.0927734375, 3519.0925292968745, 3519.0927734375], "translation" : [0, 1208.161865234375, 0], "name" : "Curve.003"}], "scene" : 0, "scenes" : [{"nodes" : [1]}]}